<svg id="vector" xmlns="http://www.w3.org/2000/svg" width="146" height="144" viewBox="0 0 73 72"><path fill="#F95721" d="M36.5,0L36.5,0A36,36 0,0 1,72.5 36L72.5,36A36,36 0,0 1,36.5 72L36.5,72A36,36 0,0 1,0.5 36L0.5,36A36,36 0,0 1,36.5 0z" id="path_0"/><path fill="#ffffff" d="M53.104,42.497C52.713,43.103 52.08,43.649 51.408,43.938C50.615,44.275 49.411,44.643 47.986,44.643C45.908,44.643 44.875,44.643 43.61,43.441C42.346,42.239 42.295,41.086 42.195,38.772C42.165,38.096 42.165,37.411 42.195,36.735L41.402,36.675H31.607L30.814,36.735C30.844,37.411 30.844,38.096 30.814,38.772C30.714,41.086 30.664,42.239 29.399,43.441C28.135,44.643 27.091,44.643 25.014,44.643C23.588,44.643 22.384,44.275 21.581,43.938C20.909,43.659 20.277,43.113 19.885,42.497C19.253,41.504 18.39,39.765 18.43,37.738C18.44,36.705 18.58,35.831 18.892,34.967C20.006,31.967 22.795,29.871 25.857,28.877C28.305,28.082 31.447,27.357 36.294,27.357C41.131,27.357 44.694,28.082 47.143,28.877C50.214,29.871 52.994,31.967 54.108,34.977C54.429,35.831 54.559,36.705 54.569,37.729C54.619,39.765 53.756,41.504 53.114,42.507L53.104,42.497Z" id="path_1"/></svg>