<svg id="vector" xmlns="http://www.w3.org/2000/svg" width="62" height="60" viewBox="0 0 31 30"><path fill="#000000" d="M0.863,2.988C0.942,1.922 0.982,1.389 1.517,0.854C2.052,0.319 2.585,0.279 3.652,0.2C3.928,0.179 4.213,0.167 4.498,0.167C4.783,0.167 5.068,0.179 5.345,0.2C6.411,0.279 6.944,0.319 7.479,0.854C8.015,1.389 8.054,1.922 8.134,2.988C8.154,3.265 8.167,3.55 8.167,3.835C8.167,4.12 8.154,4.405 8.134,4.682C8.054,5.748 8.015,6.281 7.479,6.816C6.944,7.352 6.411,7.391 5.345,7.471C5.068,7.491 4.783,7.504 4.498,7.504C4.213,7.504 3.928,7.491 3.652,7.471C2.585,7.391 2.052,7.352 1.517,6.816C0.982,6.281 0.942,5.748 0.863,4.682C0.842,4.405 0.83,4.12 0.83,3.835C0.83,3.55 0.842,3.265 0.863,2.988Z" id="path_0"/><path fill="#000000" d="M0.863,13.988C0.942,12.922 0.982,12.389 1.517,11.854C2.052,11.319 2.585,11.279 3.652,11.2C3.928,11.179 4.213,11.167 4.498,11.167C4.783,11.167 5.068,11.179 5.345,11.2C6.411,11.279 6.944,11.319 7.479,11.854C8.015,12.389 8.054,12.922 8.134,13.988C8.154,14.265 8.167,14.55 8.167,14.835C8.167,15.12 8.154,15.405 8.134,15.682C8.054,16.748 8.015,17.281 7.479,17.816C6.944,18.351 6.411,18.391 5.345,18.471C5.068,18.491 4.783,18.504 4.498,18.504C4.213,18.504 3.928,18.491 3.652,18.471C2.585,18.391 2.052,18.351 1.517,17.816C0.982,17.281 0.942,16.748 0.863,15.682C0.842,15.405 0.83,15.12 0.83,14.835C0.83,14.55 0.842,14.265 0.863,13.988Z" id="path_1"/><path fill="#000000" d="M22.866,2.988C22.946,1.922 22.985,1.389 23.521,0.854C24.056,0.319 24.589,0.279 25.655,0.2C25.931,0.179 26.217,0.167 26.502,0.167C26.787,0.167 27.072,0.179 27.348,0.2C28.415,0.279 28.948,0.319 29.483,0.854C30.018,1.389 30.058,1.922 30.137,2.988C30.158,3.265 30.17,3.55 30.17,3.835C30.17,4.12 30.158,4.405 30.137,4.682C30.058,5.748 30.018,6.281 29.483,6.816C28.948,7.352 28.415,7.391 27.348,7.471C27.072,7.491 26.787,7.504 26.502,7.504C26.217,7.504 25.931,7.491 25.655,7.471C24.589,7.391 24.056,7.352 23.521,6.816C22.985,6.281 22.946,5.748 22.866,4.682C22.846,4.405 22.833,4.12 22.833,3.835C22.833,3.55 22.846,3.265 22.866,2.988Z" id="path_2"/><path fill="#000000" d="M23.521,11.854C22.985,12.389 22.946,12.922 22.866,13.988C22.846,14.265 22.833,14.55 22.833,14.835C22.833,15.12 22.846,15.405 22.866,15.682C22.946,16.748 22.985,17.281 23.521,17.816C24.056,18.351 24.589,18.391 25.655,18.471C25.931,18.491 26.217,18.504 26.502,18.504C26.787,18.504 27.072,18.491 27.348,18.471C28.415,18.391 28.948,18.351 29.483,17.816C30.018,17.281 30.058,16.748 30.137,15.682C30.158,15.405 30.17,15.12 30.17,14.835C30.17,14.55 30.158,14.265 30.137,13.988C30.058,12.922 30.018,12.389 29.483,11.854C28.948,11.319 28.415,11.279 27.348,11.2C27.072,11.179 26.787,11.167 26.502,11.167C26.217,11.167 25.931,11.179 25.655,11.2C24.589,11.279 24.056,11.319 23.521,11.854Z" id="path_3"/><path fill="#000000" d="M12.521,0.854C11.985,1.389 11.946,1.922 11.866,2.988C11.846,3.265 11.833,3.55 11.833,3.835C11.833,4.12 11.846,4.405 11.866,4.682C11.946,5.748 11.985,6.281 12.521,6.816C13.056,7.352 13.589,7.391 14.655,7.471C14.932,7.491 15.217,7.504 15.502,7.504C15.787,7.504 16.072,7.491 16.348,7.471C17.415,7.391 17.948,7.352 18.483,6.816C19.018,6.281 19.058,5.748 19.137,4.682C19.158,4.405 19.17,4.12 19.17,3.835C19.17,3.55 19.158,3.265 19.137,2.988C19.058,1.922 19.018,1.389 18.483,0.854C17.948,0.319 17.415,0.279 16.348,0.2C16.072,0.179 15.787,0.167 15.502,0.167C15.217,0.167 14.932,0.179 14.655,0.2C13.589,0.279 13.056,0.319 12.521,0.854Z" id="path_4"/><path fill="#000000" d="M11.866,13.988C11.946,12.922 11.985,12.389 12.521,11.854C13.056,11.319 13.589,11.279 14.655,11.2C14.932,11.179 15.217,11.167 15.502,11.167C15.787,11.167 16.072,11.179 16.348,11.2C17.415,11.279 17.948,11.319 18.483,11.854C19.018,12.389 19.058,12.922 19.137,13.988C19.158,14.265 19.17,14.55 19.17,14.835C19.17,15.12 19.158,15.405 19.137,15.682C19.058,16.748 19.018,17.281 18.483,17.816C17.948,18.351 17.415,18.391 16.348,18.471C16.072,18.491 15.787,18.504 15.502,18.504C15.217,18.504 14.932,18.491 14.655,18.471C13.589,18.391 13.056,18.351 12.521,17.816C11.985,17.281 11.946,16.748 11.866,15.682C11.846,15.405 11.833,15.12 11.833,14.835C11.833,14.55 11.846,14.265 11.866,13.988Z" id="path_5"/><path fill="#000000" d="M12.521,22.854C11.985,23.389 11.946,23.922 11.866,24.988C11.846,25.265 11.833,25.55 11.833,25.835C11.833,26.12 11.846,26.405 11.866,26.682C11.946,27.748 11.985,28.281 12.521,28.816C13.056,29.351 13.589,29.391 14.655,29.471C14.932,29.491 15.217,29.504 15.502,29.504C15.787,29.504 16.072,29.491 16.348,29.471C17.415,29.391 17.948,29.351 18.483,28.816C19.018,28.281 19.058,27.748 19.137,26.682C19.158,26.405 19.17,26.12 19.17,25.835C19.17,25.55 19.158,25.265 19.137,24.988C19.058,23.922 19.018,23.389 18.483,22.854C17.948,22.319 17.415,22.279 16.348,22.2C16.072,22.179 15.787,22.167 15.502,22.167C15.217,22.167 14.932,22.179 14.655,22.2C13.589,22.279 13.056,22.319 12.521,22.854Z" id="path_6"/></svg>