<svg id="vector" xmlns="http://www.w3.org/2000/svg" width="74" height="36" viewBox="0 0 37 18"><path fill="#ffffff" d="M35.104,15.497C34.713,16.103 34.08,16.649 33.408,16.938C32.615,17.275 31.411,17.643 29.986,17.643C27.908,17.643 26.875,17.643 25.61,16.441C24.346,15.239 24.295,14.086 24.195,11.772C24.165,11.096 24.165,10.411 24.195,9.735L23.402,9.676H13.607L12.814,9.735C12.844,10.411 12.844,11.096 12.814,11.772C12.714,14.086 12.664,15.239 11.399,16.441C10.135,17.643 9.091,17.643 7.014,17.643C5.588,17.643 4.384,17.275 3.581,16.938C2.909,16.659 2.277,16.113 1.885,15.497C1.253,14.504 0.39,12.765 0.43,10.738C0.44,9.705 0.58,8.831 0.892,7.967C2.006,4.967 4.796,2.871 7.857,1.877C10.305,1.082 13.447,0.357 18.294,0.357C23.131,0.357 26.694,1.082 29.143,1.877C32.214,2.871 34.994,4.967 36.108,7.977C36.429,8.831 36.559,9.705 36.569,10.729C36.619,12.765 35.757,14.504 35.114,15.507L35.104,15.497Z" id="path_0"/></svg>