<svg id="vector" xmlns="http://www.w3.org/2000/svg" width="800" height="800" viewBox="0 0 24 24">
<path fill="#CBF6E3" d="M14,19L14,5C14,3.895 14.895,3 16,3L17,3C18.105,3 19,3.895 19,5L19,19C19,20.105 18.105,21 17,21L16,21C14.895,21 14,20.105 14,19Z" stroke-opacity="0.1" fill-opacity="0.1" id="path_0"/>
<path fill="#CBF6E3" d="M10,19L10,5C10,3.895 9.105,3 8,3L7,3C5.895,3 5,3.895 5,5L5,19C5,20.105 5.895,21 7,21L8,21C9.105,21 10,20.105 10,19Z" stroke-opacity="0.1" fill-opacity="0.1" id="path_1"/>
<path fill="#CBF6E3" d="M14,19L14,5C14,3.895 14.895,3 16,3L17,3C18.105,3 19,3.895 19,5L19,19C19,20.105 18.105,21 17,21L16,21C14.895,21 14,20.105 14,19Z" stroke-linejoin="round" stroke-width="2" stroke="#26CD58" stroke-linecap="round" id="path_2"/>
<path fill="#CBF6E3" d="M10,19L10,5C10,3.895 9.105,3 8,3L7,3C5.895,3 5,3.895 5,5L5,19C5,20.105 5.895,21 7,21L8,21C9.105,21 10,20.105 10,19Z" stroke-linejoin="round" stroke-width="2" stroke="#26CD58" stroke-linecap="round" id="path_3"/>
</svg>