<svg id="vector" xmlns="http://www.w3.org/2000/svg" width="56" height="72" viewBox="0 0 28 36"><path fill="#000000" fill-rule="evenodd" d="M10.705,17.579C10.587,16.085 10.5,14.224 10.5,12C10.5,9.777 10.587,7.916 10.704,6.422C10.797,5.243 10.846,4.788 10.947,4.449C10.998,4.278 11.069,4.093 11.437,3.724C11.87,3.292 12.045,3.234 12.098,3.216L12.103,3.214C12.282,3.154 12.529,3.116 13.495,3.04C13.819,3.014 14.156,3 14.5,3C14.844,3 15.18,3.014 15.505,3.04C16.471,3.116 16.718,3.154 16.897,3.214L16.902,3.216C16.955,3.234 17.13,3.292 17.563,3.724C17.931,4.093 18.002,4.278 18.053,4.449C18.153,4.788 18.203,5.243 18.295,6.422C18.412,7.916 18.5,9.777 18.5,12C18.5,14.224 18.412,16.085 18.295,17.579C18.203,18.757 18.153,19.212 18.053,19.551C18.002,19.722 17.931,19.907 17.563,20.275C17.13,20.708 16.955,20.766 16.902,20.784L16.897,20.785C16.719,20.846 16.472,20.883 15.507,20.96C15.182,20.986 14.845,21 14.5,21C14.155,21 13.818,20.986 13.493,20.96C12.528,20.883 12.281,20.846 12.102,20.785L12.098,20.784C12.044,20.766 11.869,20.708 11.437,20.275C11.069,19.907 10.998,19.722 10.947,19.551C10.847,19.212 10.797,18.757 10.705,17.579ZM21.286,6.188C21.118,4.031 21.033,2.953 19.685,1.604C18.337,0.255 17.472,0.186 15.742,0.049C15.343,0.018 14.928,0 14.5,0C14.072,0 13.657,0.018 13.258,0.049C11.528,0.186 10.663,0.255 9.315,1.604C7.967,2.953 7.882,4.032 7.714,6.188C7.591,7.759 7.5,9.698 7.5,12C7.5,14.302 7.591,16.242 7.714,17.813C7.882,19.969 7.967,21.046 9.315,22.396C10.663,23.745 11.527,23.813 13.256,23.95C13.655,23.982 14.071,24 14.5,24C14.929,24 15.345,23.982 15.744,23.95C17.473,23.813 18.337,23.745 19.685,22.396C21.033,21.046 21.117,19.969 21.286,17.813C21.409,16.242 21.5,14.302 21.5,12C21.5,9.698 21.409,7.759 21.286,6.188ZM0.61,17.548C0.568,16.702 1.249,16 2.096,16C2.906,16 3.568,16.642 3.609,17.451C3.652,18.312 3.707,19.122 3.769,19.881C3.93,21.843 4.03,22.88 4.291,23.734C4.502,24.424 4.848,25.069 5.749,25.965C6.672,26.883 7.304,27.217 7.932,27.412C8.717,27.656 9.658,27.743 11.51,27.885C12.515,27.962 13.55,28 14.525,28C15.5,28 16,28.743 16,29.42V30.973V34.5C16,35.328 15.328,36 14.5,36C13.672,36 13,35.328 13,34.5V30.973C12.411,30.952 11.837,30.919 11.281,30.876C7.78,30.608 6.029,30.475 3.633,28.092C1.237,25.71 1.085,23.849 0.779,20.127C0.713,19.32 0.655,18.461 0.61,17.548ZM24.582,28.467C25.207,27.843 26.22,27.843 26.845,28.467C27.47,29.092 27.47,30.106 26.845,30.73L25.576,31.999L26.845,33.268C27.47,33.893 27.47,34.906 26.845,35.531C26.22,36.156 25.207,36.156 24.582,35.531L23.313,34.263L22.044,35.531C21.419,36.156 20.406,36.156 19.781,35.531C19.156,34.906 19.156,33.893 19.781,33.268L21.05,31.999L19.781,30.73C19.156,30.106 19.156,29.092 19.781,28.467C20.406,27.843 21.419,27.843 22.044,28.467L23.313,29.736L24.582,28.467Z" id="path_0"/></svg>