<svg id="vector" xmlns="http://www.w3.org/2000/svg" width="10" height="10" viewBox="0 0 512 512"><path fill="#00000000" d="M169.45,169.45L342.55,342.55" stroke="#000000" stroke-linecap="round" stroke-linejoin="round" stroke-width="16" id="path_0"/><path fill="#00000000" d="M342.55,169.45L169.45,342.55" stroke="#000000" stroke-linecap="round" stroke-linejoin="round" stroke-width="16" id="path_1"/><path fill="#000000FF" d="M256,59c26.6,0 52.4,5.21 76.68,15.48c23.46,9.92 44.53,24.13 62.62,42.22c18.1,18.1 32.3,39.17 42.23,62.62C447.79,203.6 453,229.4 453,256c0,26.6 -5.21,52.4 -15.48,76.68c-9.92,23.46 -24.13,44.53 -42.23,62.62c-18.1,18.1 -39.17,32.3 -62.62,42.23C308.4,447.79 282.6,453 256,453c-26.6,0 -52.4,-5.21 -76.68,-15.48c-23.46,-9.92 -44.53,-24.13 -62.62,-42.23c-18.1,-18.1 -32.3,-39.17 -42.22,-62.62C64.21,308.4 59,282.6 59,256c0,-26.6 5.21,-52.4 15.48,-76.68c9.92,-23.46 24.13,-44.53 42.22,-62.62c18.1,-18.1 39.17,-32.3 62.62,-42.22C203.6,64.21 229.4,59 256,59M256,43C138.36,43 43,138.36 43,256s95.36,213 213,213s213,-95.36 213,-213S373.64,43 256,43L256,43z" id="path_2"/><path fill="#000000FF" d="M267.31,256l80.89,-80.89c3.12,-3.12 3.12,-8.19 0,-11.31c-3.13,-3.12 -8.19,-3.12 -11.31,0L256,244.69l-80.89,-80.89c-3.12,-3.12 -8.19,-3.12 -11.31,0c-3.13,3.12 -3.13,8.19 0,11.31L244.69,256l-80.89,80.89c-3.13,3.13 -3.13,8.19 0,11.31c1.56,1.56 3.61,2.34 5.66,2.34s4.09,-0.78 5.66,-2.34L256,267.31l80.89,80.89c1.56,1.56 3.61,2.34 5.66,2.34s4.09,-0.78 5.66,-2.34c3.12,-3.13 3.12,-8.19 0,-11.31L267.31,256z" id="path_3"/><path fill="#000000FF" d="M256,59c26.6,0 52.4,5.21 76.68,15.48c23.46,9.92 44.53,24.13 62.62,42.22c18.1,18.1 32.3,39.17 42.23,62.62C447.79,203.6 453,229.4 453,256c0,26.6 -5.21,52.4 -15.48,76.68c-9.92,23.46 -24.13,44.53 -42.23,62.62c-18.1,18.1 -39.17,32.3 -62.62,42.23C308.4,447.79 282.6,453 256,453c-26.6,0 -52.4,-5.21 -76.68,-15.48c-23.46,-9.92 -44.53,-24.13 -62.62,-42.23c-18.1,-18.1 -32.3,-39.17 -42.22,-62.62C64.21,308.4 59,282.6 59,256c0,-26.6 5.21,-52.4 15.48,-76.68c9.92,-23.46 24.13,-44.53 42.22,-62.62c18.1,-18.1 39.17,-32.3 62.62,-42.22C203.6,64.21 229.4,59 256,59M256,43C138.36,43 43,138.36 43,256s95.36,213 213,213s213,-95.36 213,-213S373.64,43 256,43L256,43z" id="path_4"/></svg>