<svg id="vector" xmlns="http://www.w3.org/2000/svg" width="29" height="26" viewBox="0 0 29 26"><path fill="#000000" d="M14.309,0.045C13.586,0.045 12.888,0.314 12.351,0.8L7.599,5.099C7.48,5.207 7.436,5.247 7.392,5.285C7.066,5.567 6.708,5.809 6.325,6.006C6.273,6.033 6.22,6.059 6.075,6.13L4.927,6.69C2.441,7.902 0.864,10.425 0.864,13.191V13.515C0.864,16.643 2.992,19.37 6.027,20.128C6.679,20.291 7.281,20.612 7.779,21.063L12.351,25.2C12.888,25.686 13.586,25.955 14.309,25.955C15.921,25.955 17.227,24.648 17.227,23.037V13V2.963C17.227,1.352 15.921,0.045 14.309,0.045ZM14.181,2.822C14.216,2.79 14.262,2.773 14.309,2.773C14.415,2.773 14.5,2.858 14.5,2.963V13V23.037C14.5,23.142 14.415,23.227 14.309,23.227C14.262,23.227 14.216,23.21 14.181,23.178L9.609,19.041C8.778,18.289 7.775,17.754 6.688,17.483C4.868,17.027 3.591,15.392 3.591,13.515V13.191C3.591,11.468 4.573,9.896 6.122,9.141L7.27,8.581L7.284,8.575C7.41,8.513 7.493,8.473 7.575,8.43C8.149,8.134 8.686,7.771 9.175,7.349C9.245,7.288 9.314,7.226 9.418,7.132L9.429,7.122L14.181,2.822ZM21.318,6.864C21.314,6.514 21.445,6.165 21.722,5.888C21.98,5.63 22.331,5.501 22.681,5.5C23.05,5.499 23.418,5.64 23.681,5.92C24.009,6.275 24.328,6.634 24.636,6.992C26.968,9.7 28.134,11.154 28.136,13.683C28.137,16.211 26.973,17.657 24.645,20.368C24.337,20.727 24.018,21.087 23.69,21.443C23.425,21.725 23.053,21.867 22.681,21.864C22.333,21.861 21.986,21.732 21.73,21.476C21.453,21.199 21.314,20.85 21.318,20.5C21.321,20.178 21.445,19.855 21.69,19.589L21.728,19.548C22.017,19.233 22.3,18.913 22.576,18.591C25.024,15.741 25.409,15.044 25.409,13.684C25.408,12.324 25.021,11.619 22.57,8.772C22.294,8.451 22.01,8.132 21.72,7.817L21.682,7.776C21.437,7.51 21.321,7.187 21.318,6.864ZM22.681,13.673C22.682,14.927 22.156,15.695 21.123,16.908C20.715,17.386 20.244,17.782 19.714,17.773C19.445,17.768 19.16,17.659 18.86,17.404C18.018,16.688 18.422,15.87 19.001,15.192C19.466,14.647 19.692,14.348 19.833,14.107C19.833,14.107 19.954,13.927 19.954,13.682C19.954,13.437 19.833,13.257 19.833,13.257C19.692,13.016 19.466,12.717 19.001,12.172C18.422,11.494 18.018,10.676 18.86,9.96C19.16,9.705 19.445,9.596 19.714,9.591C20.244,9.582 20.715,9.978 21.123,10.456C22.156,11.669 22.682,12.418 22.681,13.673Z" fill-rule="evenodd" id="path_0"/></svg>