<svg id="vector" xmlns="http://www.w3.org/2000/svg" width="103" height="102" viewBox="0 0 73 72"><defs><clipPath id="clip_path_0"><path d="M14.5,14h44v44h-44z"/></clipPath></defs><path fill="#26CD58" d="M36.5,0L36.5,0A36,36 0,0 1,72.5 36L72.5,36A36,36 0,0 1,36.5 72L36.5,72A36,36 0,0 1,0.5 36L0.5,36A36,36 0,0 1,36.5 0z" id="path_0"/><g id="g_0"><path fill="#ffffff" d="M27.463,19.596C28.235,19.423 29.138,19.484 29.873,19.781C30.74,20.131 31.951,20.766 33.043,21.858C34.632,23.447 35.426,24.242 35.467,26.141C35.507,28.041 34.65,28.974 32.937,30.839C32.439,31.382 31.906,31.916 31.364,32.416L31.923,33.075L39.423,40.575L40.078,41.131C40.578,40.588 41.113,40.055 41.655,39.557C43.521,37.844 44.453,36.987 46.353,37.027C48.253,37.068 49.049,37.863 50.639,39.454C51.732,40.547 52.368,41.759 52.719,42.626C53.016,43.361 53.077,44.264 52.904,45.036C52.621,46.302 51.94,48.304 50.338,49.836C49.528,50.629 48.748,51.201 47.836,51.625C44.666,53.099 40.908,52.588 37.788,51.009C35.297,49.748 32.332,47.898 28.625,44.191C24.917,40.484 22.752,37.204 21.491,34.713C19.912,31.593 19.401,27.836 20.875,24.665C21.297,23.759 21.864,22.983 22.65,22.179C24.184,20.565 26.193,19.881 27.463,19.596Z" clip-path="url(#clip_path_0)"/></g></svg>