<svg id="vector" xmlns="http://www.w3.org/2000/svg" width="37" height="28" viewBox="0 0 37 28"><path fill="#000000" d="M8.271,19.879L8.215,19.816L5.995,17.33C4.81,16.003 4.116,15.218 3.685,14.588C3.488,14.302 3.41,14.137 3.38,14.056C3.366,14.02 3.363,14.003 3.362,14.002L3.362,14.002C3.362,14.002 3.362,14.002 3.362,14.002C3.362,14.002 3.362,14.002 3.362,14.002L3.362,14L3.362,13.998C3.362,13.998 3.362,13.998 3.362,13.998C3.362,13.998 3.362,13.998 3.362,13.998L3.362,13.998C3.363,13.997 3.366,13.98 3.38,13.944C3.41,13.864 3.488,13.699 3.685,13.412C4.116,12.783 4.81,11.997 5.995,10.67L8.271,8.121C11.167,4.877 12.045,3.991 13.171,3.511C14.302,3.03 15.469,3.01 19.597,3.16C20.678,3.2 21.736,3.244 22.755,3.292C28.445,3.559 29.861,3.762 31.392,5.258C32.299,6.144 32.666,6.83 32.896,7.635C33.176,8.62 33.276,9.837 33.43,12.031C33.475,12.678 33.5,13.336 33.5,14C33.5,14.664 33.475,15.322 33.43,15.969C33.276,18.163 33.176,19.38 32.896,20.365C32.666,21.17 32.299,21.856 31.392,22.742C29.861,24.238 28.445,24.441 22.755,24.708C21.736,24.756 20.678,24.8 19.597,24.84C15.469,24.99 14.302,24.97 13.171,24.489C12.045,24.009 11.167,23.123 8.271,19.879ZM19.707,27.838C20.799,27.798 21.867,27.753 22.896,27.704C28.295,27.451 30.995,27.324 33.488,24.888C35.982,22.451 36.129,20.36 36.422,16.179C36.472,15.468 36.5,14.74 36.5,14C36.5,13.261 36.472,12.533 36.422,11.821C36.129,7.64 35.982,5.549 33.488,3.112C30.995,0.676 28.295,0.549 22.896,0.296C21.867,0.247 20.799,0.202 19.707,0.162C15.821,0.02 13.877,-0.05 11.995,0.751C10.113,1.553 8.753,3.076 6.033,6.123L3.757,8.672C1.494,11.207 0.362,12.474 0.362,14C0.362,15.526 1.494,16.793 3.757,19.328L6.033,21.878C8.753,24.924 10.113,26.447 11.995,27.249C13.877,28.05 15.82,27.979 19.707,27.838ZM14.939,8.439C15.525,7.854 16.475,7.854 17.061,8.439L20.5,11.879L23.939,8.439C24.525,7.854 25.475,7.854 26.061,8.439C26.646,9.025 26.646,9.975 26.061,10.561L22.621,14L26.061,17.439C26.646,18.025 26.646,18.975 26.061,19.561C25.475,20.146 24.525,20.146 23.939,19.561L20.5,16.121L17.061,19.561C16.475,20.146 15.525,20.146 14.939,19.561C14.354,18.975 14.354,18.025 14.939,17.439L18.379,14L14.939,10.561C14.354,9.975 14.354,9.025 14.939,8.439Z" fill-rule="evenodd" id="path_0"/></svg>